<?xml version="1.0" encoding="UTF-8" standalone="no"?>
<!-- Created with Inkscape (http://www.inkscape.org/) -->
<svg
   xmlns:dc="http://purl.org/dc/elements/1.1/"
   xmlns:cc="http://creativecommons.org/ns#"
   xmlns:rdf="http://www.w3.org/1999/02/22-rdf-syntax-ns#"
   xmlns:svg="http://www.w3.org/2000/svg"
   xmlns="http://www.w3.org/2000/svg"
   xmlns:sodipodi="http://sodipodi.sourceforge.net/DTD/sodipodi-0.dtd"
   xmlns:inkscape="http://www.inkscape.org/namespaces/inkscape"
   width="744.09448819"
   height="1052.3622047"
   id="svg2"
   sodipodi:version="0.32"
   inkscape:version="0.46"
   sodipodi:docname="hadiko-logo.svg"
   inkscape:output_extension="org.inkscape.output.svg.inkscape">
  <defs
     id="defs4">
    <inkscape:perspective
       sodipodi:type="inkscape:persp3d"
       inkscape:vp_x="0 : 526.18109 : 1"
       inkscape:vp_y="0 : 1000 : 0"
       inkscape:vp_z="744.09448 : 526.18109 : 1"
       inkscape:persp3d-origin="372.04724 : 350.78739 : 1"
       id="perspective10" />
    <inkscape:perspective
       id="perspective2447"
       inkscape:persp3d-origin="372.04724 : 350.78739 : 1"
       inkscape:vp_z="744.09448 : 526.18109 : 1"
       inkscape:vp_y="0 : 1000 : 0"
       inkscape:vp_x="0 : 526.18109 : 1"
       sodipodi:type="inkscape:persp3d" />
  </defs>
  <sodipodi:namedview
     id="base"
     pagecolor="#ffffff"
     bordercolor="#666666"
     borderopacity="1.0"
     gridtolerance="10000"
     guidetolerance="10"
     objecttolerance="10"
     inkscape:pageopacity="0.0"
     inkscape:pageshadow="2"
     inkscape:zoom="0.21636443"
     inkscape:cx="1863.1882"
     inkscape:cy="955.57357"
     inkscape:document-units="px"
     inkscape:current-layer="layer1"
     showgrid="false"
     inkscape:window-width="1276"
     inkscape:window-height="958"
     inkscape:window-x="0"
     inkscape:window-y="0" />
  <metadata
     id="metadata7">
    <rdf:RDF>
      <cc:Work
         rdf:about="">
        <dc:format>image/svg+xml</dc:format>
        <dc:type
           rdf:resource="http://purl.org/dc/dcmitype/StillImage" />
      </cc:Work>
    </rdf:RDF>
  </metadata>
  <g
     inkscape:label="Layer 1"
     inkscape:groupmode="layer"
     id="layer1">
    <path
       style="fill:#000000"
       d="M 229.17262,633.77607 C 225.774,633.50328 223.11686,632.76378 220.11512,631.25533 C 212.96487,627.66213 208.44508,621.0078 207.04799,612.01706 C 206.62124,609.27082 206.89387,602.96101 207.56804,599.98132 C 208.75105,594.75242 210.62369,591.21408 214.04263,587.7476 C 216.85788,584.89322 219.49637,583.2435 223.09641,582.0867 C 233.73022,578.66974 245.4516,582.36151 251.12984,590.91614 C 254.01665,595.26532 255.39182,599.82168 255.66608,605.94612 C 256.12198,616.12716 252.27833,624.94773 245.33508,629.65416 C 241.03901,632.56622 234.58997,634.21092 229.17262,633.77607 z M 235.86,627.45294 C 238.73167,626.73465 240.7032,625.56911 243.13139,623.15416 C 245.69155,620.608 246.69578,618.9115 247.70565,615.4267 C 249.22981,610.16712 248.95734,602.25437 247.08977,597.5425 C 246.104,595.05536 245.04614,593.44648 243.14802,591.5476 C 239.79406,588.19227 236.25043,586.75868 231.27766,586.74542 C 226.31108,586.73216 222.52484,588.2405 219.11849,591.58933 C 215.88796,594.76529 214.42022,598.51345 213.89751,604.92196 C 213.12022,614.45181 215.94874,621.54598 222.11454,625.53114 C 225.79813,627.91197 231.07521,628.64976 235.86,627.45294 z M 413.16533,633.67329 C 400.07623,632.32896 391.56897,623.59382 390.48371,610.38407 C 389.62904,599.98095 393.6634,589.88541 400.54205,585.21419 C 409.14618,579.37125 423.01249,579.40995 430.64476,585.29823 C 433.01199,587.12451 434.88553,589.96237 436.21471,593.73492 C 436.94245,595.80055 436.97734,596.03621 436.5728,596.15409 C 434.4355,596.77689 430.93108,597.65509 430.86156,597.58528 C 430.81396,597.53747 430.4636,596.67075 430.08298,595.65922 C 429.12787,593.12101 428.3615,591.89535 426.83893,590.47116 C 422.25238,586.18101 413.70583,585.38096 406.85,588.59999 C 401.31731,591.1978 397.79213,597.62265 397.3878,605.84539 C 397.03181,613.08492 398.86491,618.90586 402.69501,622.69847 C 407.61242,627.56772 416.67344,629.05362 424.19186,626.22368 C 426.38895,625.39671 428.47983,624.33487 429.87527,623.33745 L 430.99357,622.53812 L 430.99357,617.71481 L 430.99357,612.8915 L 423.49436,612.8915 L 415.99514,612.8915 L 415.99514,609.8655 L 415.99514,606.8395 L 426.91834,606.8395 L 437.84151,606.8395 L 437.77247,616.37326 L 437.70339,625.90705 L 435.59835,627.42708 C 433.2597,629.11582 428.62087,631.48626 425.99036,632.3368 C 422.2112,633.55872 417.16736,634.08433 413.16533,633.67329 z M 160.75874,607.23419 L 160.75874,581.57899 L 164.17943,581.57899 L 167.60012,581.57899 L 167.60012,594.274 L 167.60012,606.96904 L 180.29716,594.274 L 192.9942,581.57899 L 197.59798,581.58154 L 202.20176,581.58407 L 198.6495,585.07749 C 196.69576,586.99884 191.85771,591.70553 187.89829,595.53676 L 180.6993,602.50264 L 191.77946,617.55461 C 197.87353,625.83316 202.85959,632.67019 202.85959,632.74797 C 202.85959,632.82575 200.87624,632.88466 198.45215,632.87887 L 194.04472,632.86835 L 184.99756,619.96102 L 175.95041,607.05366 L 173.94609,608.98512 C 172.84371,610.0474 170.9649,611.86152 169.77095,613.01651 L 167.60012,615.11647 L 167.60012,624.00294 L 167.60012,632.8894 L 164.17943,632.8894 L 160.75874,632.8894 L 160.75874,607.23419 z M 264.16895,607.23419 L 264.16895,581.57899 L 267.58965,581.57899 L 271.01034,581.57899 L 271.01034,604.20819 L 271.01034,626.8374 L 283.64059,626.8374 L 296.27085,626.8374 L 296.27085,629.8634 L 296.27085,632.8894 L 280.2199,632.8894 L 264.16895,632.8894 L 264.16895,607.23419 z M 304.16476,607.23419 L 304.16476,581.57899 L 307.58545,581.57899 L 311.00615,581.57899 L 311.00615,604.20819 L 311.00615,626.8374 L 323.6364,626.8374 L 336.26666,626.8374 L 336.26666,629.8634 L 336.26666,632.8894 L 320.21571,632.8894 L 304.16476,632.8894 L 304.16476,607.23419 z M 344.4237,607.23419 L 344.4237,581.57899 L 362.97438,581.57899 L 381.52507,581.57899 L 381.52507,584.60499 L 381.52507,587.63098 L 366.39508,587.63098 L 351.26508,587.63098 L 351.26508,595.52489 L 351.26508,603.4188 L 365.34256,603.4188 L 379.42003,603.4188 L 379.42003,606.4448 L 379.42003,609.4708 L 365.34256,609.4708 L 351.26508,609.4708 L 351.26508,618.1541 L 351.26508,626.8374 L 366.92134,626.8374 L 382.57759,626.8374 L 382.57759,629.8634 L 382.57759,632.8894 L 363.50064,632.8894 L 344.4237,632.8894 L 344.4237,607.23419 z M 626.63096,584.47503 C 615.44682,583.8002 601.92023,581.77115 591.50306,579.20566 C 583.11626,577.14022 578.1417,575.43705 572.67854,572.76067 C 568.56036,570.7432 565.93209,568.7643 564.68003,566.73844 C 563.98184,565.60874 563.99689,564.98112 564.77723,562.68686 C 566.91593,556.39878 571.12815,552.11197 577.20475,550.03924 C 580.43499,548.93741 583.14297,548.4944 589.39802,548.04455 C 596.17113,547.55742 598.34445,546.93896 598.34445,545.49861 C 598.34445,544.75232 597.64589,544.55061 594.3975,544.35899 C 588.28193,543.99822 584.9288,543.40075 580.84629,541.94446 C 575.87841,540.17233 570.53673,536.99945 565.69398,532.94422 C 563.08017,530.7555 558.19587,525.79368 556.20316,523.30283 C 555.57414,522.5166 554.86282,521.86769 554.62243,521.86085 C 553.88724,521.83991 552.88137,523.32694 552.54128,524.93756 C 552.10706,526.99379 552.53757,531.42106 553.73765,537.24153 C 554.24494,539.7018 554.66106,542.02261 554.6624,542.39888 C 554.66832,544.0691 551.85072,546.49416 549.48749,546.85281 C 546.85332,547.25259 543.629,546.05126 541.34687,543.81979 C 540.13439,542.63423 539.94265,542.28295 539.40792,540.26753 C 530.56603,506.94352 529.05695,328.46798 536.67907,217.53819 C 537.05695,212.03876 537.38045,206.4995 537.39794,205.22871 L 537.42978,202.91819 L 531.90405,200.40034 C 510.31491,190.56305 492.10706,183.5063 476.37779,178.88021 C 468.6346,176.60288 457.2505,174.1301 449.67582,173.08019 C 448.01152,172.8495 446.27592,172.60132 445.81894,172.52868 L 444.98805,172.3966 L 445.10249,173.91697 C 445.36212,177.36621 446.55278,204.87379 447.04189,218.72227 C 448.58707,262.47366 448.99226,293.67283 448.78981,353.31342 C 448.6989,380.08693 448.54926,406.82531 448.45724,412.73203 L 448.28992,423.47154 L 447.63306,423.90191 C 446.62264,424.56398 441.43282,424.67536 438.17019,424.10497 C 434.92508,423.53769 431.48407,422.65168 431.07267,422.27748 C 430.8318,422.0584 430.81472,420.77543 431.00054,416.85939 C 432.61124,382.91784 432.21073,267.91993 430.19826,186.48881 C 429.69202,166.00515 429.12069,148.86066 428.93913,148.70457 C 428.83893,148.61843 426.68481,147.56659 424.15218,146.36714 C 421.61955,145.16769 413.70201,141.41407 406.55763,138.02578 C 359.8359,115.86749 337.76647,107.15502 328.35938,107.15502 L 326.53083,107.15502 L 326.5301,110.77306 C 326.52931,114.79718 326.30649,127.6559 325.34577,179.12116 C 324.98647,198.36914 324.51834,225.07029 324.30549,238.45705 C 324.09262,251.8438 323.84796,267.23693 323.76178,272.66399 C 323.67561,278.09105 323.49294,296.14837 323.3559,312.79136 C 323.21884,329.43435 322.93419,349.44541 322.72331,357.26037 C 322.08698,380.84137 322.23686,395.44637 323.24992,408.58257 C 323.79923,415.70509 323.85701,415.19117 322.31188,416.92478 C 319.90232,419.62823 316.53349,421.08379 313.5898,420.6933 C 311.63413,420.43386 308.97412,419.53427 308.79688,419.07234 C 308.70947,418.8446 308.63795,376.78088 308.63792,325.59744 C 308.63787,274.41399 308.55906,204.57422 308.46276,170.39796 L 308.28764,108.25931 L 305.50259,110.3962 C 302.13418,112.98068 297.07119,116.96927 285.74564,125.96063 C 268.59654,139.5753 262.96937,143.52452 247.59174,152.73753 C 227.37386,164.85043 212.96445,174.21156 174.84092,200.00031 C 143.24062,221.37641 127.66063,231.32868 111.55455,240.42666 C 105.66114,243.75573 105.62957,243.76958 104.31847,243.60061 C 100.72782,243.13785 99.975627,242.5817 99.975627,240.38958 L 99.975627,238.90142 L 101.96979,236.96465 C 110.32265,228.85218 152.66166,198.33673 207.59593,160.83563 C 238.69281,139.60721 244.02761,135.73449 288.61268,102.02254 C 308.74575,86.79938 314.89534,82.77579 318.46726,82.48907 C 325.39772,81.93276 343.89304,89.08515 383.63011,107.68845 C 417.4322,123.51323 429.0508,128.88163 438.02107,132.81988 C 439.93245,133.65904 441.55086,134.48777 441.61754,134.6615 C 441.68419,134.83523 441.43229,137.83441 441.05778,141.32635 C 440.68324,144.81829 440.44679,147.74532 440.53233,147.83086 C 440.61785,147.9164 465.75635,157.31389 496.39561,168.71418 C 527.0349,180.11446 552.19179,189.60637 552.2998,189.8073 C 552.40784,190.00823 552.39945,193.07365 552.28115,196.61933 C 552.16287,200.16501 552.05875,212.06971 552.0498,223.07422 L 552.03352,243.08242 L 556.83564,243.39669 C 566.70116,244.04231 573.60757,245.58247 589.52959,250.68756 C 606.76188,256.21277 614.51289,258.12357 623.21027,258.99064 C 626.44982,259.3136 634.9143,259.38924 637.7033,259.12015 C 653.40005,257.60571 667.66069,252.61786 685.04589,242.56143 C 688.45293,240.59062 688.83999,240.43053 690.1974,240.43053 C 692.02371,240.43053 693.18472,241.22357 694.35634,243.27135 C 695.51508,245.29661 695.9658,247.34015 695.9658,250.56857 C 695.9658,254.29747 695.07326,257.18708 693.27421,259.28252 C 691.9207,260.85906 676.51005,267.75576 662.67981,272.97439 C 652.89713,276.66574 640.59247,280.62249 637.06495,281.21125 C 636.06402,281.3783 635.93893,281.47264 636.06302,281.96676 C 636.14102,282.2773 636.38744,283.24183 636.6106,284.11016 C 637.78576,288.68241 636.08239,295.28205 632.11125,301.54283 C 629.63996,305.43897 624.66769,310.4894 615.72024,318.19148 C 608.24076,324.62988 604.13474,328.24421 603.40334,329.03347 L 602.8049,329.67919 L 604.13077,330.10741 C 606.12621,330.75187 610.33112,331.27792 618.21079,331.86886 C 629.18109,332.69162 632.88452,333.20525 634.76203,334.16433 C 636.72238,335.16572 638.35255,337.93201 638.5435,340.58121 C 638.6451,341.99064 638.50324,342.94036 637.79682,345.58069 C 637.07294,348.28609 636.92438,349.30993 636.92283,351.60308 C 636.92057,354.92962 637.21982,355.81 639.91904,360.41794 C 642.11784,364.1716 642.81347,365.90891 642.81347,367.64676 C 642.81347,370.02848 641.77237,371.73675 639.00845,373.89018 C 637.74964,374.87092 636.43772,376.28848 634.91375,378.31456 C 633.68043,379.95426 630.36499,383.99349 627.5461,387.29062 C 621.50102,394.3613 617.73913,398.97729 617.89488,399.13304 C 617.95634,399.1945 619.17745,399.41987 620.60846,399.6339 C 624.19085,400.16964 629.31731,401.44424 631.65567,402.38056 C 635.53461,403.93377 637.85891,405.99469 639.33102,409.18617 C 641.67483,414.26742 640.98198,419.29848 637.40991,423.1361 L 636.05505,424.59168 L 637.50387,426.71175 C 639.23032,429.23812 640.76322,432.45044 641.5681,435.22878 C 642.35429,437.94252 642.40883,444.46147 641.66759,447.11939 C 638.78411,457.45875 629.68046,467.57991 613.92321,477.96474 C 611.8864,479.3071 610.01765,480.52868 609.77039,480.67938 C 609.44068,480.88033 610.78596,481.03845 614.81836,481.27271 C 627.4715,482.00771 634.64175,484.10939 638.57121,488.23485 C 641.38644,491.19049 642.15454,494.17902 641.7214,500.49135 C 641.50148,503.69641 641.50861,503.76512 642.29221,505.9852 C 646.74806,518.60956 641.73903,529.44111 626.36783,540.42017 C 624.1703,541.98979 619.21163,545.14836 612.55349,549.21962 C 609.87614,550.85673 606.63795,552.8977 605.35751,553.75514 L 603.02943,555.31406 L 603.99644,555.97115 C 605.93718,557.28993 609.67258,558.60111 622.94714,562.62308 C 640.31303,567.88466 647.01698,570.88827 650.03174,574.75797 C 652.54569,577.98484 651.18578,582.09628 647.20843,583.29383 C 643.49475,584.41201 634.31736,584.93882 626.63096,584.47503 z M 623.31194,506.58198 C 632.17835,506.23765 637.02461,505.49517 637.02461,504.48112 C 637.02461,503.72186 634.05129,502.64292 629.43348,501.72654 C 623.15269,500.48015 614.85191,499.5339 590.05585,497.23775 C 573.15041,495.67228 562.48897,494.35545 556.81138,493.13163 C 555.45937,492.84021 554.32575,492.64018 554.29223,492.68712 C 554.18647,492.83529 553.31628,505.32603 553.4055,505.41523 C 553.45229,505.46202 558.81673,505.62584 565.32652,505.77927 C 571.83628,505.93271 582.37244,506.18244 588.74019,506.33427 C 595.10795,506.48609 603.21894,506.63684 606.76462,506.66926 C 610.3103,506.70168 613.98097,506.75367 614.92166,506.7848 C 615.86235,506.81593 619.63798,506.72465 623.31194,506.58198 z M 596.76727,476.99284 C 600.24846,476.58352 603.55009,475.83891 605.05917,475.1228 C 606.0312,474.66156 606.0533,474.22227 605.10453,474.22111 C 604.06233,474.21982 598.51743,472.70742 595.44162,471.58552 C 592.01388,470.33523 586.55511,467.78231 582.99448,465.76435 C 575.30576,461.40681 565.01789,453.86015 556.03112,445.98531 C 554.39466,444.55135 553.00631,443.42758 552.94584,443.48805 C 552.8854,443.54849 552.97115,444.36066 553.13643,445.29288 C 553.30228,446.22834 553.44674,449.87649 553.45881,453.43451 C 553.47634,458.59084 553.35327,461.04437 552.8439,465.69249 C 552.49363,468.88869 552.27654,471.68482 552.36145,471.90611 C 552.49381,472.25105 553.6921,472.32854 560.76063,472.44924 C 567.46477,472.56373 569.57086,472.69103 572.03142,473.13056 C 576.10452,473.85812 579.2619,475.01442 581.51808,476.60475 C 581.88757,476.86523 582.65723,477.12615 583.22843,477.18461 C 585.89841,477.4579 593.75885,477.34657 596.76727,476.99284 z M 624.26195,426.85226 C 629.73621,425.52643 631.99529,424.76551 632.59197,424.04658 C 633.0485,423.49651 632.64851,423.30761 629.39383,422.53611 C 614.57733,419.02398 559.38456,413.21001 555.36556,414.73803 C 554.55975,415.04439 554.10096,416.33484 554.10096,418.29508 C 554.10096,420.63312 555.15911,421.88128 557.42769,422.21914 C 558.00657,422.30537 562.62451,422.49748 567.68977,422.64607 C 583.50958,423.11015 593.98307,423.82013 602.94923,425.03624 C 607.44847,425.64647 613.97573,426.89907 616.50044,427.63676 C 617.44113,427.91163 618.34441,428.14494 618.50771,428.15526 C 618.67103,428.16555 621.26042,427.57921 624.26195,426.85226 z M 583.53106,394.458 C 584.40065,393.66019 585.7142,391.62232 585.7142,391.07107 C 585.7142,389.81888 581.97401,387.25812 572.16298,381.79312 C 564.49079,377.51949 561.54155,375.81995 559.34801,374.40839 C 558.52284,373.87737 557.79807,373.44289 557.73744,373.44289 C 557.67682,373.44289 557.54565,374.18294 557.44595,375.08745 C 557.34627,375.99196 556.91653,379.25388 556.49102,382.33614 C 556.06549,385.41842 555.71729,388.43784 555.71721,389.04596 L 555.71705,390.15166 L 559.23944,390.06078 C 563.14114,389.96013 567.4238,390.46339 570.39009,391.37117 C 571.36517,391.66956 573.7615,392.56896 575.71524,393.36985 C 577.66899,394.17071 579.56352,394.92469 579.92533,395.04536 C 581.05153,395.42095 582.79019,395.13772 583.53106,394.458 z M 622.15774,349.75083 C 623.94243,349.33953 627.01439,347.85132 627.79513,347.01985 L 628.43303,346.34047 L 627.06405,346.34047 C 625.06412,346.34047 618.43187,345.61589 614.7901,344.99951 C 608.36624,343.91228 601.65208,342.34455 591.63463,339.59281 C 576.99153,335.57042 575.42783,335.32939 562.53457,335.1077 L 552.90542,334.94217 L 552.74552,335.74172 C 552.55138,336.71243 552.94155,340.6342 553.34438,341.76114 L 553.63566,342.57597 L 558.29454,342.7393 C 563.79802,342.9322 569.16448,343.44004 575.32055,344.35045 C 579.73348,345.00309 582.10815,345.41328 595.05532,347.75951 C 600.94099,348.82608 607.38516,349.82474 610.31688,350.12463 C 612.28173,350.32564 620.83536,350.05559 622.15774,349.75083 z M 584.55108,327.95148 C 584.99677,327.67969 585.51985,327.07492 585.71343,326.60752 C 586.02453,325.85649 586.00709,325.64643 585.56319,324.80029 C 584.359,322.50466 578.43985,317.43169 573.95935,314.85521 C 570.484,312.85675 569.04389,311.69702 563.26439,306.24246 C 555.72934,299.13107 553.4851,297.51141 551.44305,297.71111 C 550.7041,297.78337 550.56383,297.9313 550.2427,298.97702 C 550.04272,299.62827 549.8162,301.6456 549.73931,303.45997 C 549.58193,307.17462 549.98236,309.35084 551.48936,312.97085 C 552.62303,315.69401 553.31788,316.37785 555.98047,317.39085 C 557.2106,317.85885 561.94695,320.05668 566.50568,322.27489 C 571.06442,324.49311 575.62315,326.61954 576.6362,327.00029 C 580.5745,328.48048 583.17175,328.7926 584.55108,327.95148 z M 620.57896,282.38781 C 626.41851,281.71304 631.86975,279.90409 633.59378,278.06895 L 634.15567,277.47085 L 632.23521,277.28483 C 618.11001,275.91668 607.76875,273.72923 602.28217,270.94896 C 598.81566,269.19234 587.7117,267.61046 575.58368,267.14545 C 571.82092,267.00118 567.77426,266.76034 566.59112,266.61026 C 562.20587,266.05399 558.24163,264.6834 554.59904,262.46417 C 553.62216,261.86901 552.82367,261.46352 552.82459,261.56307 C 552.82877,262.01434 554.40627,267.69235 554.76794,268.55799 C 555.0583,269.25291 555.45271,269.64314 556.16835,269.94353 C 557.91771,270.67786 563.00226,271.85485 570.84733,273.3415 C 591.14913,277.18872 593.367,277.68358 600.18636,279.88778 C 602.57427,280.65961 605.48589,281.48528 606.65661,281.72261 C 611.06322,282.6159 616.39887,282.87083 620.57896,282.38781 z M 157.60117,573.75768 C 150.91698,573.48539 145.37958,571.00562 141.70671,566.63982 C 137.20642,561.29048 134.79972,552.50085 135.49733,543.9623 C 136.41795,532.69419 142.05201,525.06191 151.68074,522.03918 C 156.99121,520.37203 163.40206,520.51386 168.20393,522.40469 C 173.02121,524.3016 177.08087,528.57389 179.05842,533.82773 C 179.41354,534.77124 179.70412,535.58936 179.70412,535.6458 C 179.70412,535.70224 178.37202,536.06047 176.7439,536.44185 C 175.11578,536.82326 173.6312,537.18682 173.4448,537.24977 C 173.25843,537.31271 173.03487,537.15901 172.94801,536.90817 C 172.22622,534.82384 170.64683,532.02287 169.46872,530.73787 C 166.86246,527.89511 163.92811,526.739 159.31152,526.73605 C 155.84304,526.73384 154.21566,527.08733 151.4033,528.45385 C 149.06565,529.5897 147.01268,531.40804 145.64085,533.5577 C 141.5693,539.93783 141.21481,552.08295 144.87761,559.70712 C 146.67732,563.45323 150.40782,566.37403 154.82781,567.49757 C 156.87564,568.01812 160.90277,568.00909 162.95735,567.47936 C 167.89904,566.20526 171.57602,562.4602 173.2695,556.9763 C 173.65273,555.73535 173.96596,555.14402 174.22948,555.16394 C 174.44462,555.18018 175.98669,555.52667 177.65631,555.93386 L 180.69196,556.67426 L 179.95783,558.84608 C 178.24054,563.9265 175.50053,567.68539 171.592,570.32285 C 167.72403,572.93292 163.40201,573.99399 157.60117,573.75768 z M 65.505557,547.24048 L 65.505557,521.58528 L 74.649337,521.58759 C 92.802037,521.59217 95.916027,522.27494 101.04057,527.37414 C 103.23937,529.56207 103.72421,530.2185 104.92761,532.63675 C 107.10618,537.01466 107.89501,540.85212 107.90257,547.10892 C 107.91122,554.26325 106.55797,559.57603 103.55105,564.19268 C 101.30155,567.64642 98.410927,569.98497 94.741337,571.31977 C 90.890947,572.72036 88.877447,572.89569 76.642237,572.89569 L 65.505557,572.89569 L 65.505557,547.24048 z M 90.371377,566.2216 C 94.393137,565.08432 96.689477,563.14947 98.533387,559.34448 C 99.164557,558.04198 99.859747,556.26585 100.07823,555.39752 C 101.32191,550.45433 101.31031,543.45035 100.05076,538.82031 C 98.695767,533.83946 95.162267,529.73792 91.206157,528.55383 C 89.292617,527.98111 84.471517,527.65022 77.938467,527.64325 L 72.346947,527.63727 L 72.346947,547.26303 L 72.346947,566.88882 L 80.569767,566.77843 C 87.260597,566.6886 89.086717,566.58487 90.371377,566.2216 z M 118.39476,547.24048 L 118.39476,521.58528 L 121.81545,521.58528 L 125.23614,521.58528 L 125.23614,547.24048 L 125.23614,572.89569 L 121.81545,572.89569 L 118.39476,572.89569 L 118.39476,547.24048 z M 188.65055,547.24048 L 188.65055,521.58528 L 192.07124,521.58528 L 195.49194,521.58528 L 195.49194,534.41188 L 195.49194,547.23846 L 208.32699,534.40541 L 221.16206,521.57236 L 225.65104,521.64459 L 230.13999,521.71684 L 219.39375,532.08504 L 208.64751,542.45322 L 209.26289,543.26808 C 209.60135,543.71625 214.53299,550.41778 220.22208,558.16039 C 225.91117,565.903 230.68133,572.38587 230.82242,572.56677 C 231.02545,572.82706 230.1446,572.89569 226.60015,572.89569 L 222.12136,572.89569 L 213.11112,560.06808 C 208.15548,553.0129 204.06328,547.19604 204.01736,547.14173 C 203.97144,547.08742 202.03783,548.86355 199.72042,551.08868 L 195.50699,555.13439 L 195.49946,564.01504 L 195.49194,572.89569 L 192.07124,572.89569 L 188.65055,572.89569 L 188.65055,547.24048 z M 236.54027,547.24048 L 236.54027,521.58528 L 241.64939,521.58528 L 246.75851,521.58528 L 252.7527,539.54392 C 256.04949,549.42117 259.33927,559.30764 260.0633,561.51385 L 261.37972,565.52514 L 264.43624,556.51438 C 266.11733,551.55845 269.49789,541.67325 271.94863,534.54726 L 276.40451,521.59091 L 280.94351,521.58809 L 285.48251,521.58528 L 285.48251,547.24048 L 285.48251,572.89569 L 282.19338,572.89569 L 278.90425,572.89569 L 278.89185,551.64791 L 278.87946,530.40014 L 272.975,547.37205 C 269.72753,556.70659 266.40227,566.26809 265.58551,568.61982 L 264.10051,572.89569 L 261.01554,572.89569 L 257.93058,572.89569 L 250.59032,551.27116 L 243.25009,529.64664 L 243.18278,551.27116 L 243.11547,572.89569 L 239.82787,572.89569 L 236.54027,572.89569 L 236.54027,547.24048 z M 291.00824,572.71505 C 291.00824,572.61569 295.40881,561.07085 300.78727,547.05984 L 310.5663,521.58528 L 314.1745,521.58528 L 317.78273,521.58528 L 318.31722,522.83514 C 319.58864,525.80815 338.45893,572.01883 338.5716,572.43521 C 338.68609,572.8583 338.38672,572.89569 334.88433,572.89569 L 331.07244,572.89569 L 328.09186,565.13334 L 325.11127,557.371 L 314.41076,557.371 L 303.71025,557.371 L 301.00806,564.80443 C 299.52185,568.89282 298.24975,572.38587 298.18115,572.56677 C 298.08995,572.80733 297.10971,572.89569 294.53235,572.89569 C 292.59408,572.89569 291.00824,572.81441 291.00824,572.71505 z M 322.84701,551.64307 C 322.84701,551.53185 321.41732,547.65396 319.6699,543.02555 C 317.9225,538.39712 315.92929,532.93098 315.24057,530.87859 L 313.98833,527.14696 L 313.51699,529.16824 C 312.74281,532.4884 311.47354,536.30363 308.53141,544.15425 C 306.99807,548.24569 305.74354,551.64994 305.74354,551.71925 C 305.74354,551.78856 309.59182,551.84526 314.29528,551.84526 C 318.99873,551.84526 322.84701,551.75427 322.84701,551.64307 z M 344.16057,547.24048 L 344.16057,521.58528 L 347.64704,521.59691 L 351.13352,521.60854 L 364.55317,541.68112 L 377.97281,561.7537 L 378.04023,541.66949 L 378.10764,521.58528 L 381.39514,521.58528 L 384.68263,521.58528 L 384.68263,547.24048 L 384.68263,572.89569 L 381.14106,572.89569 L 377.59946,572.89569 L 364.23494,552.90062 L 350.87039,532.90554 L 350.80298,552.90062 L 350.73553,572.89569 L 347.44806,572.89569 L 344.16057,572.89569 L 344.16057,547.24048 z M 395.99724,547.24048 L 395.99724,521.58528 L 399.4033,521.58528 L 402.80939,521.58528 L 416.30943,541.74506 L 429.80948,561.90484 L 429.8769,541.74506 L 429.94431,521.58528 L 433.10024,521.58528 L 436.25618,521.58528 L 436.25618,547.24048 L 436.25618,572.89569 L 432.7697,572.88319 L 429.28322,572.87069 L 415.86358,552.78469 L 402.44393,532.69869 L 402.37652,552.79719 L 402.3091,572.89569 L 399.15317,572.89569 L 395.99724,572.89569 L 395.99724,547.24048 z M 650.02011,563.95449 C 649.17407,563.61266 648.37844,562.44636 647.8791,560.81601 C 647.51701,559.63376 647.42741,558.28409 647.42333,553.9503 C 647.41657,546.77764 647.79898,536.16859 648.10839,534.94485 C 648.41605,533.72803 650.71399,531.19093 652.7061,529.86864 C 658.28901,526.16293 664.87095,524.04557 668.78923,524.69484 C 672.32643,525.28097 672.65693,526.10359 671.66119,531.8437 C 670.5828,538.06031 670.10909,538.68583 664.20886,541.68417 C 658.32022,544.67662 657.47754,546.04029 656.48688,554.18067 C 656.1941,556.58661 655.76609,559.23136 655.53575,560.05787 C 654.97078,562.08535 653.7141,563.52912 652.1776,563.91602 C 650.82771,564.25591 650.76872,564.25696 650.02011,563.95449 z M 413.75853,513.41616 C 410.01385,512.84772 405.99151,511.14392 403.41814,509.03612 C 400.42172,506.5818 398.22408,502.2006 397.75145,497.73899 L 397.6086,496.39036 L 400.53039,496.20099 C 402.13738,496.09684 403.58273,495.96151 403.74232,495.90028 C 403.91788,495.83292 404.1633,496.47875 404.36384,497.5359 C 405.09747,501.40318 407.24188,504.20349 410.74619,505.87037 C 413.67641,507.26414 416.17944,507.72568 420.0288,507.5819 C 426.25517,507.34935 430.23333,505.15121 431.50878,501.23854 C 432.0507,499.57611 431.89342,497.47683 431.10648,495.86837 C 429.77643,493.14986 427.34585,491.95733 418.6425,489.75298 C 408.94299,487.29634 406.34776,486.24903 403.505,483.64417 C 401.06026,481.40401 399.92885,479.05839 399.74598,475.8511 C 399.42901,470.29199 401.98885,465.81877 406.97006,463.22725 C 410.39952,461.44304 412.71209,460.95283 417.70549,460.95149 C 422.58611,460.9502 425.24996,461.47151 428.61477,463.08637 C 431.25657,464.35426 434.0758,467.12434 435.22605,469.58236 C 436.18513,471.63183 436.77496,473.71232 436.77931,475.06086 C 436.78283,476.15722 436.86898,476.12901 432.51417,476.45737 L 430.48249,476.61057 L 430.32232,475.87667 C 429.24033,470.91953 427.06135,468.48213 422.72865,467.38242 C 418.94799,466.42286 413.0469,466.80687 410.36252,468.18716 C 407.77506,469.5176 406.25932,471.83665 406.25932,474.46495 C 406.25932,476.41075 406.50414,477.06634 407.74264,478.43719 C 409.35697,480.22408 411.20485,480.92514 419.81053,483.01569 C 428.55746,485.14052 431.44029,486.33736 434.33583,489.04598 C 437.13153,491.66123 438.36735,494.5435 438.3548,498.41931 C 438.34656,500.95733 438.02894,502.30585 436.87174,504.71568 C 435.07622,508.45481 431.16126,511.47799 426.25001,512.91789 C 424.63982,513.38998 423.4737,513.50899 419.81053,513.57509 C 417.35026,513.61948 414.62686,513.54796 413.75853,513.41616 z M 248.90739,487.24677 L 248.90739,461.59155 L 252.32809,461.59155 L 255.74878,461.59155 L 255.74878,472.11678 L 255.74878,482.64199 L 269.03686,482.64199 L 282.32494,482.64199 L 282.32494,472.11678 L 282.32494,461.59155 L 285.74564,461.59155 L 289.16633,461.59155 L 289.16633,487.24677 L 289.16633,512.90198 L 285.74564,512.90198 L 282.32494,512.90198 L 282.32494,500.79798 L 282.32494,488.69399 L 269.03686,488.69399 L 255.74878,488.69399 L 255.74878,500.79798 L 255.74878,512.90198 L 252.32809,512.90198 L 248.90739,512.90198 L 248.90739,487.24677 z M 294.9552,512.71144 C 294.9552,512.60664 299.35624,501.05866 304.73528,487.04926 L 314.51538,461.57763 L 318.17453,461.65039 L 321.83367,461.72312 L 331.6819,485.79955 C 337.09844,499.04159 341.82257,510.55683 342.18001,511.38898 L 342.82986,512.90198 L 338.93125,512.90198 L 335.03263,512.90198 L 332.05657,505.13963 L 329.08052,497.37729 L 318.36885,497.37729 L 307.65721,497.37729 L 304.95502,504.81072 C 303.4688,508.89911 302.1967,512.39216 302.1281,512.57306 C 302.0369,512.81362 301.05666,512.90198 298.4793,512.90198 C 296.54103,512.90198 294.9552,512.81622 294.9552,512.71144 z M 326.79397,491.62928 C 326.79397,491.50706 325.41595,487.74759 323.73173,483.2749 C 322.04752,478.80223 320.05586,473.33854 319.30586,471.13338 L 317.94218,467.12397 L 317.46739,469.1599 C 316.6896,472.49526 315.424,476.3006 312.47836,484.16054 C 310.94502,488.25198 309.69049,491.65623 309.69049,491.72554 C 309.69049,491.79485 313.53878,491.85155 318.24223,491.85155 C 322.94568,491.85155 326.79397,491.75153 326.79397,491.62928 z M 348.10752,487.24677 L 348.10752,461.59155 L 351.594,461.59468 L 355.08047,461.59782 L 368.5659,481.77158 L 382.05133,501.94533 L 382.05133,481.76845 L 382.05133,461.59155 L 385.34046,461.59155 L 388.62959,461.59155 L 388.62959,487.24677 L 388.62959,512.90198 L 385.07751,512.90198 L 381.52544,512.90198 L 368.17139,492.87036 L 354.81734,472.83878 L 354.74993,492.87036 L 354.68249,512.90198 L 351.39502,512.90198 L 348.10752,512.90198 L 348.10752,487.24677 z M 648.64839,490.13957 C 648.12639,489.70033 647.76661,489.06324 647.57111,488.23188 C 647.40965,487.54534 647.16707,483.31297 647.03201,478.8266 C 646.71462,468.28278 645.95167,462.21199 643.81671,453.24219 L 643.23856,450.81324 L 643.83634,450.17693 C 644.67667,449.28245 647.11131,448.2505 649.1286,447.93372 C 650.06929,447.786 653.02951,447.41806 655.70686,447.11607 C 663.47705,446.23965 667.51378,445.15926 672.7611,442.55175 L 675.47474,441.20328 L 676.44492,441.76499 C 676.97853,442.07396 677.77034,442.76573 678.2045,443.3023 C 679.35941,444.72963 679.26634,446.62637 677.86875,450.14538 C 677.29397,451.5926 676.63151,453.44496 676.39656,454.26174 C 675.62277,456.95212 674.34764,457.64055 667.94242,458.82611 C 661.6225,459.99585 658.77209,461.18325 656.48907,463.59724 C 653.25096,467.02104 652.71773,470.73171 654.01298,480.82781 C 654.82066,487.1236 654.69178,488.4949 653.15623,489.94312 C 652.36508,490.68925 652.06808,490.79903 650.8404,490.79903 C 649.7212,490.79903 649.27124,490.66367 648.64839,490.13957 z M 513.48492,418.52911 C 507.98079,418.09131 505.11922,417.77506 500.7231,417.11876 C 485.63866,414.86681 474.78509,411.5866 471.91812,408.4132 C 470.99504,407.39146 470.9894,407.37033 470.99517,404.95198 C 471.00203,402.05936 471.43688,400.88504 473.03466,399.4445 C 475.00275,397.67014 477.7703,397.32586 483.22494,398.17687 C 485.25104,398.493 487.90066,398.81562 489.11298,398.89382 L 491.31722,399.03602 L 490.21426,397.41182 C 486.62634,392.1284 487.0392,389.39677 491.86298,386.50278 L 493.3965,385.58275 L 491.2372,384.90061 C 490.04956,384.52546 486.16245,383.68444 482.59916,383.03175 C 470.79114,380.86879 466.98896,379.88534 463.42783,378.07309 C 461.24093,376.96015 460.07376,375.90408 459.40688,374.43484 C 458.71177,372.90334 458.74598,372.64794 459.81331,371.40102 C 462.84494,367.85924 471.28153,367.05056 484.80372,369.00561 C 500.47645,371.27156 522.13944,377.65763 525.16291,380.90316 L 525.78945,381.57569 L 525.08763,384.02175 C 523.79169,388.53865 523.50364,390.7927 523.514,396.33522 C 523.5224,400.8026 523.63168,402.13841 524.35892,406.66288 C 525.60797,414.43346 525.45706,416.51166 523.55326,417.75906 C 522.40846,418.50916 517.73137,418.86689 513.48492,418.52911 z M 508.12078,403.67185 C 510.10496,403.24632 510.56473,402.65756 511.08831,399.87156 C 511.70632,396.58301 511.90685,392.77049 511.53371,391.40329 C 511.18148,390.11272 510.60652,389.73126 508.22232,389.20626 C 506.23639,388.76894 499.29936,388.74849 498.28444,389.17692 C 497.13001,389.66427 496.99436,390.45968 497.08646,396.20124 L 497.17084,401.4614 L 498.59001,402.3092 C 501.05078,403.77923 504.99234,404.34278 508.12078,403.67185 z M 642.68191,404.11167 C 640.08555,403.25968 639.92049,403.1178 638.96096,400.91301 C 633.92046,389.33138 633.42667,383.7843 637.04713,379.41413 C 640.37981,375.39131 648.54358,372.37837 656.12716,372.37242 C 661.56122,372.36816 664.71028,373.60571 665.98952,376.24828 C 667.19679,378.74212 666.17071,382.6189 663.91513,384.08593 C 662.63582,384.91803 661.45626,385.20208 657.8119,385.55572 C 652.15971,386.10419 650.66805,386.73581 649.52964,389.06264 C 648.90923,390.33067 648.80122,391.01323 648.46636,395.78083 C 648.04529,401.77576 647.69294,403.03944 646.18628,403.958 C 645.19099,404.56481 644.1958,404.60846 642.68191,404.11167 z M 684.09078,398.55475 C 682.41817,398.03976 680.43811,396.65288 679.79484,395.54583 C 679.41543,394.89288 679.25931,394.15461 679.25837,393.00878 C 679.25721,391.63027 679.41795,391.0777 680.35149,389.25049 L 681.44595,387.10832 L 680.55757,385.05827 C 678.35288,379.97081 678.08533,375.91305 679.72461,372.42562 C 681.38659,368.88992 686.22819,365.74509 691.317,364.89586 C 695.34476,364.22372 696.26016,372.41192 693.44212,383.90468 C 691.91304,390.14061 689.39046,396.31475 687.6679,398.03731 C 686.63254,399.0727 686.04763,399.1573 684.09078,398.55475 z M 169.18672,366.44796 C 166.50734,365.28579 165.14149,362.15115 166.23619,359.67641 C 167.17769,357.54795 170.50221,355.80905 172.86628,356.20846 C 175.16091,356.59613 176.80969,358.65804 176.80969,361.13997 C 176.80969,365.11755 172.70654,367.97464 169.18672,366.44796 z M 231.62868,360.21127 C 229.69854,359.12897 228.55513,355.58531 228.10536,349.29195 C 227.71769,343.86729 228.4117,334.98298 229.33797,333.51287 C 229.58626,333.11883 229.96846,332.92083 230.48075,332.92083 C 231.63105,332.92083 235.04329,331.77413 239.24443,329.97574 C 241.30282,329.09462 243.80695,328.09431 244.80916,327.75282 C 247.00122,327.00595 249.57885,326.92646 250.92294,327.56426 C 252.63527,328.3768 253.9861,331.1959 253.37271,332.67675 C 252.69284,334.31813 251.34545,334.67362 244.56574,335.00037 C 239.50472,335.24427 236.69525,335.61476 236.41031,336.07576 C 236.33624,336.19562 236.52043,337.32439 236.81961,338.5841 C 238.42315,345.33587 238.5169,352.5341 237.05227,356.44867 C 235.90547,359.51379 233.4378,361.22572 231.62868,360.21127 z M 191.80811,355.04224 C 190.50349,354.78137 189.95265,354.43243 188.69983,353.07328 C 187.45817,351.72625 187.35634,351.19191 188.14915,350.18402 C 189.082,348.99809 190.61966,348.40381 199.17576,345.92239 C 202.70118,344.89997 204.37885,344.09618 208.0256,341.68238 C 209.8153,340.49777 211.64335,339.48946 212.18585,339.38768 C 214.72221,338.91183 216.92138,342.51093 215.62549,345.01693 C 214.78297,346.64615 212.15024,348.2643 207.01968,350.30627 C 205.5276,350.9001 202.64908,352.09803 200.62298,352.96827 C 197.33188,354.38188 194.23662,355.3245 193.12376,355.25206 C 192.90668,355.23793 192.31464,355.14352 191.80811,355.04224 z M 513.4604,349.74599 C 503.55646,348.78519 486.81885,343.81545 474.54164,338.19022 C 471.17304,336.64678 466.81816,334.19104 466.64375,333.73656 C 466.56232,333.52432 466.74038,333.10591 467.03945,332.80681 C 467.60684,332.23943 468.29045,332.21219 483.7667,332.14009 C 486.55906,332.1271 486.53007,332.17391 486.62745,327.51887 C 486.71191,323.48198 487.01049,321.54392 487.84956,319.58644 L 488.32714,318.47232 L 487.09169,317.57067 C 485.54206,316.43974 481.80272,314.56425 475.73217,311.87326 C 461.55218,305.58748 457.81176,302.68195 458.84928,298.75882 C 459.72995,295.4289 463.44498,293.63961 468.48964,294.11567 C 474.37018,294.67063 479.16044,295.99304 497.56554,302.14247 C 512.10323,306.99973 518.17941,308.79139 522.95762,309.62975 C 526.37507,310.22937 526.43654,310.24727 526.6075,310.69274 C 526.69312,310.91585 526.04071,312.90022 525.15775,315.10245 C 522.42851,321.90935 521.49645,325.04931 521.11326,328.72745 C 520.75043,332.21038 521.83373,337.7578 523.92596,343.1305 C 524.58576,344.82484 524.92483,346.06648 524.83042,346.44265 C 524.3997,348.15871 522.49138,349.29698 519.30113,349.74072 C 517.07015,350.05101 516.60881,350.05143 513.4604,349.74599 z M 509.38856,333.06163 C 511.06339,332.19554 512.30773,329.21222 511.95019,326.92004 C 511.7455,325.60765 510.24976,324.30126 507.92974,323.40856 C 504.13619,321.94893 496.89061,320.88456 495.94279,321.64772 C 495.37419,322.10554 494.67111,326.23471 494.67111,329.11633 C 494.67111,332.29779 494.84112,332.46093 499.01276,333.28242 C 499.3022,333.33942 501.58743,333.39978 504.09109,333.41657 C 507.62112,333.44025 508.81052,333.36055 509.38856,333.06163 z M 267.62196,347.12931 C 264.67606,346.43378 263.42682,343.49777 263.71818,337.95446 C 263.9796,332.98077 266.36714,321.60249 267.48923,319.98279 C 269.58973,316.95079 277.34475,314.14615 284.60344,313.79333 C 289.16728,313.5715 291.38155,314.2452 292.00953,316.04666 C 292.34181,316.99984 291.47419,319.76155 290.40002,321.16988 C 288.60207,323.5271 286.55158,324.34602 281.00929,324.92019 C 276.74953,325.36152 274.46484,325.89525 273.67151,326.63436 C 272.60143,327.63128 272.64577,329.60541 273.89459,336.57068 C 275.06512,343.09945 274.23808,346.01538 270.93782,346.99546 C 269.48189,347.42781 268.97324,347.44836 267.62196,347.12931 z M 116.61668,337.66338 C 114.45869,336.68388 114.51203,335.3952 117.0529,327.12599 C 117.91902,324.30721 118.84647,321.23705 119.11389,320.30341 L 119.60013,318.60591 L 126.03616,315.36198 C 133.08922,311.80709 134.30922,311.34415 136.62453,311.34415 C 138.57588,311.34415 139.68576,311.85981 141.03599,313.39373 C 143.31283,315.98037 143.25702,318.79862 140.90205,320.15785 C 139.45826,320.99113 138.43955,321.24366 133.40881,322.01539 C 126.4391,323.08454 125.57471,323.3512 124.27314,324.8336 C 123.24083,326.00932 123.03366,326.64588 122.09229,331.53397 C 121.2623,335.84379 120.65381,337.38262 119.58755,337.86844 C 118.63039,338.30458 117.92146,338.25564 116.61668,337.66338 z M 642.25627,331.27716 C 640.61449,330.70243 638.24277,329.19117 637.97969,328.5521 C 637.70746,327.89083 641.40357,310.20215 642.93654,304.82997 C 645.03019,297.4929 646.27169,295.51788 649.39173,294.56078 C 653.21812,293.38701 660.58272,293.16272 664.21678,294.10927 C 667.36009,294.928 667.93592,295.81224 667.90092,299.76641 C 667.87219,303.00894 667.05985,306.51334 665.68171,309.33982 C 664.42858,311.90993 663.99967,312.17912 661.49107,311.96991 C 659.53659,311.80691 659.38508,311.83638 657.48925,312.74824 C 655.21486,313.84217 653.01459,315.70518 652.26751,317.16956 C 651.41965,318.83152 650.99541,320.98968 650.73541,324.96353 C 650.45041,329.31897 650.15231,330.06755 648.33116,331.00085 C 646.53795,331.9198 644.37331,332.01827 642.25627,331.27716 z M 685.30902,326.36699 C 682.68874,325.71585 680.95398,323.16275 680.0181,318.58023 C 679.45482,315.82216 679.27915,309.19264 679.63109,303.9765 C 679.92616,299.60335 680.82115,291.77034 681.11251,291.01108 C 681.18716,290.81649 681.89806,290.26346 682.69224,289.78213 C 685.38259,288.15161 689.31907,288.4767 690.60247,290.43541 C 691.33202,291.54888 692.0755,304.63027 691.92538,313.71232 C 691.80537,320.97184 691.58042,322.72948 690.53989,324.53708 C 689.72343,325.95543 687.20219,326.83744 685.30902,326.36699 z M 184.23214,311.68874 C 183.11808,311.4653 181.88192,309.92189 181.51932,308.30159 C 180.97643,305.87576 181.47425,303.72258 183.52301,299.63485 C 184.46596,297.75346 185.23507,295.97733 185.23217,295.68789 C 185.22928,295.39845 184.51877,294.10585 183.65331,292.81546 C 182.78782,291.52506 182.00351,290.06313 181.91039,289.56673 C 181.68712,288.37661 182.13594,286.96467 183.1131,285.78314 C 185.41857,282.9955 198.93092,275.36337 205.35932,273.21789 C 209.6259,271.79392 211.48103,271.79851 212.22379,273.23489 C 212.60835,273.97852 212.6068,274.18896 212.20513,275.78802 C 211.25534,279.5692 209.04302,282.30168 205.58843,283.96048 C 204.59409,284.43793 202.06362,285.41437 199.96515,286.13035 C 195.38882,287.69175 192.84151,288.87998 191.38174,290.1342 C 189.11016,292.08591 188.75725,294.18518 189.47625,301.46877 C 190.01138,306.88978 189.93113,308.55972 189.07435,309.8311 C 188.13229,311.22902 186.00643,312.04457 184.23214,311.68874 z M 155.49613,310.17822 C 152.63422,309.38189 151.17871,308.1211 150.88669,306.1854 C 150.4606,303.3609 153.93711,301.09124 159.47184,300.58052 C 163.08426,300.24719 166.3356,301.01826 167.06505,302.38127 C 167.76332,303.68598 166.89062,306.22368 165.18967,307.8347 C 162.86107,310.04016 158.65469,311.0571 155.49613,310.17822 z M 226.93601,297.94281 C 225.75995,297.65832 224.99937,297.11002 224.35555,296.08259 C 223.79902,295.19447 223.77716,294.89425 223.74235,287.66242 C 223.71424,281.82255 223.6157,279.81387 223.297,278.58442 C 222.89125,277.0193 222.89451,276.98569 223.67475,274.70067 C 225.59834,269.06703 225.68099,263.9013 223.89601,260.87279 C 223.53379,260.25822 223.45424,259.86741 223.62604,259.54639 C 223.89654,259.04097 232.36107,253.78516 236.30677,251.67267 C 241.35011,248.97251 244.70607,248.34517 246.1867,249.82579 C 248.18057,251.81967 247.0444,257.3194 244.21433,259.3732 C 242.72496,260.45403 241.39163,260.89701 237.02201,261.76275 C 232.33784,262.69081 231.46914,263.12472 230.47425,265.03321 C 229.8351,266.25923 229.88191,270.89829 230.6216,279.63694 C 231.72135,292.62988 231.36473,296.62436 228.99256,297.88274 C 228.36052,298.21803 228.10465,298.2255 226.93601,297.94281 z M 520.06318,279.09797 C 518.49927,278.37551 512.58778,276.53211 505.73487,274.62992 C 489.52438,270.1303 484.72094,268.51622 479.37587,265.77266 C 473.65391,262.83562 471.25322,260.07616 471.20075,256.3758 C 471.17549,254.59378 471.64023,253.64089 472.85666,252.98061 C 473.79785,252.46973 476.55495,252.75483 481.1199,253.8351 C 487.87708,255.43415 491.41779,254.97399 492.26678,252.38642 C 492.65308,251.20907 492.70981,249.32003 492.45992,245.95626 C 492.27536,243.47171 492.29901,243.26979 492.88393,242.33568 C 493.22465,241.79157 494.2442,240.59172 495.14961,239.66935 L 496.79581,237.99231 L 495.65892,237.32606 C 494.08856,236.40576 490.94302,235.13896 485.06685,233.06031 C 474.11105,229.18478 469.44346,227.08166 465.94125,224.44265 C 462.69993,222.00026 461.51669,220.09862 461.51669,217.33182 C 461.51669,213.09493 465.0094,211.33746 472.6958,211.7067 C 479.31285,212.02456 487.36798,213.72512 500.32841,217.54036 C 511.37762,220.79298 530.2202,227.44853 530.88157,228.33232 C 531.1021,228.62699 531.0504,229.1639 530.67291,230.49878 C 528.65752,237.62588 527.79524,245.16727 527.4313,258.84965 C 527.08063,272.03344 526.04642,275.97169 522.20396,278.75515 C 521.03355,279.60299 521.12478,279.58838 520.06318,279.09797 z M 511.92617,261.49192 C 513.59754,257.87445 515.4584,250.29469 515.4584,247.10423 C 515.4584,245.57356 514.95585,245.01888 512.84389,244.2185 C 510.67646,243.39711 506.65288,242.63193 504.96826,242.72077 C 503.67764,242.78883 503.44969,242.88434 503.16753,243.4753 C 502.39759,245.0879 502.06173,252.53231 502.54975,257.16869 C 502.92145,260.70012 503.18669,261.42424 504.33773,262.05041 C 505.73624,262.81121 507.951,263.3449 510.01558,263.41859 C 511.0166,263.45433 511.02197,263.44893 511.92617,261.49192 z M 271.55536,270.51551 C 267.91374,269.46965 265.64106,265.35452 264.67827,258.06326 C 264.26791,254.95565 264.50186,245.22513 265.06557,241.95483 C 265.62169,238.72855 266.11593,237.35195 267.47168,235.25308 C 270.76165,230.15988 282.09428,220.60321 287.12989,218.67555 C 290.3947,217.42576 291.2503,218.49011 290.46004,222.81825 C 289.70935,226.92976 287.81997,230.0198 283.46964,234.25098 C 274.266,243.20253 274.45748,242.78587 274.84138,253.02667 C 275.22395,263.23195 275.16606,267.06974 274.6077,268.51686 C 274.18622,269.6092 273.0898,270.86731 272.61941,270.79835 C 272.53039,270.78529 272.05157,270.65802 271.55536,270.51551 z M 156.12459,235.83875 C 154.21032,234.7408 153.39109,233.68169 153.39109,232.30481 C 153.39109,230.24735 155.49047,227.82325 157.86117,227.14334 C 160.47279,226.39434 164.17943,229.3858 164.17943,232.24255 C 164.17943,233.46267 162.81057,235.25446 161.29123,236.02309 C 159.59538,236.88103 157.83212,236.81812 156.12459,235.83875 z M 219.36891,221.13005 C 218.96977,221.03591 218.28368,220.61828 217.84428,220.20199 C 215.96921,218.42555 214.98937,215.00288 214.7755,209.48247 C 214.60396,205.05434 214.95861,201.56725 215.88638,198.56029 C 216.54847,196.4143 218.11538,193.8457 218.91769,193.59106 C 219.38399,193.44306 219.3833,193.4003 218.89809,192.33151 C 217.74797,189.79812 218.59578,186.84232 221.10507,184.63713 C 222.95509,183.0113 226.49635,180.93856 230.7514,178.99103 C 232.70514,178.0968 235.82666,176.63888 237.68812,175.75122 L 241.07261,174.13728 L 241.56677,174.74754 C 242.29488,175.64672 243.11437,178.55447 243.16018,180.40137 C 243.21291,182.52671 242.41139,184.38338 240.78398,185.90563 C 239.18302,187.40313 237.82792,188.17796 233.59195,190.01793 C 226.02905,193.30299 224.47535,194.30365 223.93922,196.2347 C 223.54397,197.65836 223.57789,200.56489 224.03737,204.6448 C 225.17954,214.78673 224.70964,219.01533 222.27363,220.51716 C 221.21856,221.16762 220.32636,221.35587 219.36891,221.13005 z M 179.02032,219.03017 C 177.50935,218.07604 176.8726,215.17345 177.76274,213.2976 C 178.3496,212.06091 180.26148,210.41489 182.88957,208.88367 C 184.10437,208.1759 186.10476,207.00639 187.3349,206.28478 C 189.75178,204.867 192.71441,202.69528 197.07072,199.14806 C 201.53588,195.51219 203.9115,194.55313 205.64274,195.68747 C 206.59391,196.31071 207.5902,198.57171 207.59335,200.11426 C 207.59954,203.13705 206.03423,204.84724 199.70492,208.7329 C 198.18694,209.66481 195.58195,211.42478 193.91605,212.64395 C 186.81606,217.84001 184.27346,219.23385 181.54603,219.42511 C 180.16118,219.52222 179.68052,219.44706 179.02032,219.03017 z M 265.85346,186.49257 C 262.28078,185.71529 259.90382,183.79731 259.39919,181.28459 C 258.95476,179.07164 259.42426,177.26614 261.30357,173.96103 C 263.33251,170.39274 263.34827,169.82458 261.52175,166.08954 C 259.40045,161.75173 259.61485,160.82422 263.16227,158.99223 C 267.42248,156.79213 268.72205,155.749 275.5636,149.03818 C 282.54471,142.19042 282.94075,141.89803 284.70867,142.28633 C 286.59089,142.69974 288.27545,145.65044 288.56368,149.03888 C 288.69691,150.60502 288.63925,150.92137 288.03163,151.95817 C 287.24253,153.3047 285.95946,154.22459 281.16188,156.88345 C 273.12754,161.33614 272.32323,162.74703 271.78502,173.33229 C 271.35383,181.81292 270.7044,184.67146 268.85535,186.22732 C 267.97274,186.96999 268.02618,186.96527 265.85346,186.49257 z"
       id="path2453" />
  </g>
</svg>
